<svg  viewBox="0 0 10 17" fill="none" xmlns="http://www.w3.org/2000/svg">
<path d="M8.77213 2.526C8.77213 2.706 8.74813 2.88 8.70013 3.048C8.65213 3.216 8.56813 3.366 8.44813 3.498C8.40013 3.57 8.31613 3.666 8.19613 3.786C8.07613 3.894 7.91413 4.05 7.71013 4.254C7.20613 4.674 6.72613 5.118 6.27013 5.586C5.82613 6.054 5.39413 6.546 4.97413 7.062C4.83013 7.23 4.68613 7.404 4.54213 7.584C4.39813 7.764 4.28413 7.95 4.20013 8.142C4.11613 8.334 4.07413 8.538 4.07413 8.754C4.08613 8.97 4.17613 9.192 4.34413 9.42C4.64413 9.84 4.96213 10.242 5.29813 10.626C5.63413 11.01 5.99413 11.388 6.37813 11.76C6.60613 12 6.83413 12.234 7.06213 12.462C7.30213 12.69 7.53013 12.918 7.74613 13.146C8.03413 13.434 8.20813 13.74 8.26813 14.064C8.32813 14.376 8.29813 14.652 8.17813 14.892C8.05813 15.132 7.86013 15.306 7.58413 15.414C7.32013 15.522 7.00213 15.504 6.63013 15.36C6.43813 15.276 6.25213 15.162 6.07213 15.018C5.89213 14.886 5.71813 14.736 5.55013 14.568C5.38213 14.388 5.22013 14.208 5.06413 14.028C4.90813 13.848 4.76413 13.68 4.63213 13.524C2.37613 11.04 1.24813 9.396 1.24813 8.592C1.24813 7.98 1.68613 7.092 2.56213 5.928C2.89813 5.508 3.27013 5.07 3.67813 4.614C4.08613 4.146 4.54213 3.684 5.04613 3.228C5.35813 2.916 5.67613 2.61 6.00013 2.31C6.33613 1.998 6.70213 1.734 7.09813 1.518C7.26613 1.434 7.44613 1.398 7.63813 1.41C7.84213 1.41 8.02813 1.458 8.19613 1.554C8.36413 1.638 8.50213 1.764 8.61013 1.932C8.71813 2.1 8.77213 2.298 8.77213 2.526Z" fill="white"/>
<path d="M8.70013 3.048L9.66165 3.32272L9.66165 3.32272L8.70013 3.048ZM8.44813 3.498L7.70819 2.82533L7.6577 2.88086L7.61607 2.9433L8.44813 3.498ZM8.19613 3.786L8.86509 4.52929L8.88464 4.5117L8.90323 4.49311L8.19613 3.786ZM7.71013 4.254L8.35031 5.02222L8.38516 4.99318L8.41723 4.96111L7.71013 4.254ZM6.27013 5.586L5.55383 4.88807L5.54466 4.89774L6.27013 5.586ZM4.97413 7.062L5.73338 7.71279L5.74166 7.70313L5.74969 7.69327L4.97413 7.062ZM4.54213 7.584L3.76126 6.9593L3.76126 6.9593L4.54213 7.584ZM4.07413 8.754H3.07413V8.78176L3.07566 8.80947L4.07413 8.754ZM4.34413 9.42L5.15786 8.83876L5.15356 8.83275L5.14918 8.8268L4.34413 9.42ZM5.29813 10.626L6.0507 9.9675L6.0507 9.9675L5.29813 10.626ZM6.37813 11.76L7.10312 11.0713L7.08883 11.0562L7.07392 11.0418L6.37813 11.76ZM7.06213 12.462L6.35502 13.1691L6.36408 13.1782L6.37338 13.187L7.06213 12.462ZM7.74613 13.146L7.02017 13.8337L7.02946 13.8436L7.03902 13.8531L7.74613 13.146ZM8.26813 14.064L7.28482 14.2461L7.28612 14.2528L8.26813 14.064ZM7.58413 15.414L7.21973 14.4828L7.21259 14.4856L7.20549 14.4885L7.58413 15.414ZM6.63013 15.36L6.22931 16.2762L6.24904 16.2848L6.26913 16.2926L6.63013 15.36ZM6.07213 15.018L6.69682 14.2371L6.68042 14.224L6.66349 14.2116L6.07213 15.018ZM5.55013 14.568L4.81907 15.2503L4.83083 15.2629L4.84302 15.2751L5.55013 14.568ZM5.06413 14.028L4.30844 14.6829L4.30844 14.6829L5.06413 14.028ZM4.63213 13.524L5.39551 12.8781L5.38418 12.8647L5.37239 12.8517L4.63213 13.524ZM2.56213 5.928L1.78126 5.30331L1.77201 5.31486L1.76311 5.32668L2.56213 5.928ZM3.67813 4.614L4.42343 5.28085L4.4319 5.27113L3.67813 4.614ZM5.04613 3.228L5.71704 3.96954L5.73557 3.95277L5.75323 3.93511L5.04613 3.228ZM6.00013 2.31L6.67953 3.04376L6.68058 3.04279L6.00013 2.31ZM7.09813 1.518L6.65091 0.623573L6.63494 0.631556L6.61927 0.640104L7.09813 1.518ZM7.63813 1.41L7.57575 2.40805L7.60691 2.41H7.63813V1.41ZM8.19613 1.554L7.69999 2.42224L7.72409 2.43601L7.74891 2.44843L8.19613 1.554ZM8.61013 1.932L9.4513 1.39124L9.4513 1.39124L8.61013 1.932ZM7.77213 2.526C7.77213 2.61591 7.76031 2.6973 7.7386 2.77328L9.66165 3.32272C9.73594 3.0627 9.77213 2.79609 9.77213 2.526H7.77213ZM7.7386 2.77328C7.73378 2.79016 7.72695 2.80469 7.70819 2.82533L9.18807 4.17067C9.4093 3.92731 9.57047 3.64183 9.66165 3.32272L7.7386 2.77328ZM7.61607 2.9433C7.62469 2.93038 7.62192 2.93649 7.59655 2.9655C7.57301 2.99239 7.5381 3.02982 7.48902 3.07889L8.90323 4.49311C9.03442 4.36191 9.17565 4.20949 9.28018 4.0527L7.61607 2.9433ZM7.52716 3.0427C7.38781 3.16812 7.21142 3.33849 7.00302 3.54689L8.41723 4.96111C8.61683 4.76151 8.76444 4.61988 8.86509 4.52929L7.52716 3.0427ZM7.06994 3.48578C6.5395 3.92781 6.03411 4.39528 5.5539 4.88814L6.98635 6.28386C7.41814 5.84071 7.87275 5.42019 8.35031 5.02222L7.06994 3.48578ZM5.54466 4.89774C5.08271 5.38466 4.63404 5.89572 4.19856 6.43073L5.74969 7.69327C6.15421 7.19628 6.56954 6.72334 6.99559 6.27426L5.54466 4.89774ZM4.21487 6.41121C4.06322 6.58813 3.91202 6.77085 3.76126 6.9593L5.32299 8.2087C5.46023 8.03715 5.59703 7.87187 5.73338 7.71279L4.21487 6.41121ZM3.76126 6.9593C3.56795 7.20094 3.40637 7.4614 3.28397 7.74118L5.11628 8.54282C5.16188 8.4386 5.2283 8.32706 5.32299 8.20869L3.76126 6.9593ZM3.28397 7.74118C3.14296 8.06349 3.07413 8.40438 3.07413 8.754H5.07413C5.07413 8.67162 5.08929 8.60451 5.11628 8.54282L3.28397 7.74118ZM3.07566 8.80947C3.10133 9.27141 3.29079 9.67625 3.53907 10.0132L5.14918 8.8268C5.06146 8.70775 5.07092 8.66859 5.07259 8.69853L3.07566 8.80947ZM3.53039 10.0012C3.84928 10.4477 4.18766 10.8755 4.54555 11.2845L6.0507 9.9675C5.73659 9.60851 5.43898 9.23233 5.15786 8.83876L3.53039 10.0012ZM4.54555 11.2845C4.90048 11.6901 5.27952 12.088 5.68233 12.4782L7.07392 11.0418C6.70873 10.688 6.36777 10.3299 6.0507 9.9675L4.54555 11.2845ZM5.65313 12.4487C5.88686 12.6948 6.12082 12.9349 6.35502 13.1691L7.76923 11.7549C7.54743 11.5331 7.3254 11.3052 7.10312 11.0713L5.65313 12.4487ZM6.37338 13.187C6.60133 13.4036 6.81687 13.6191 7.02017 13.8337L8.47208 12.4583C8.24338 12.2169 8.00292 11.9764 7.75087 11.737L6.37338 13.187ZM7.03902 13.8531C7.21804 14.0321 7.26957 14.1636 7.28484 14.2461L9.25141 13.8819C9.14668 13.3164 8.85021 12.8359 8.45323 12.4389L7.03902 13.8531ZM7.28612 14.2528C7.31251 14.3901 7.28816 14.4359 7.2837 14.4448L9.07255 15.3392C9.30809 14.8681 9.34374 14.3619 9.25013 13.8752L7.28612 14.2528ZM7.2837 14.4448C7.28251 14.4472 7.28163 14.4487 7.28115 14.4494C7.2809 14.4498 7.28072 14.4501 7.28062 14.4502C7.28051 14.4504 7.28046 14.4505 7.28045 14.4505C7.28044 14.4505 7.28045 14.4505 7.28048 14.4504C7.28051 14.4504 7.28052 14.4504 7.2805 14.4504C7.2805 14.4504 7.28022 14.4507 7.27951 14.4513C7.27802 14.4526 7.26279 14.4659 7.21973 14.4828L7.94852 16.3452C8.42898 16.1572 8.82997 15.8244 9.07255 15.3392L7.2837 14.4448ZM7.20549 14.4885C7.22664 14.4798 7.23195 14.4847 7.20414 14.4831C7.17192 14.4813 7.10317 14.4708 6.99112 14.4274L6.26913 16.2926C6.78387 16.4918 7.3818 16.5772 7.96276 16.3395L7.20549 14.4885ZM7.03094 14.4438C6.92672 14.3982 6.81519 14.3318 6.69682 14.2371L5.44743 15.7989C5.68906 15.9922 5.94953 16.1538 6.22931 16.2762L7.03094 14.4438ZM6.66349 14.2116C6.52707 14.1116 6.39153 13.9952 6.25723 13.8609L4.84302 15.2751C5.04472 15.4768 5.25718 15.6604 5.48076 15.8244L6.66349 14.2116ZM6.28118 13.8857C6.12128 13.7144 5.96751 13.5435 5.81981 13.3731L4.30844 14.6829C4.47274 14.8725 4.64297 15.0616 4.81907 15.2503L6.28118 13.8857ZM5.81981 13.3731C5.66599 13.1956 5.52459 13.0306 5.39551 12.8781L3.86874 14.1699C4.00366 14.3294 4.15026 14.5004 4.30844 14.6829L5.81981 13.3731ZM5.37239 12.8517C4.25732 11.6239 3.4456 10.6302 2.91869 9.86224C2.65505 9.47799 2.47686 9.1706 2.36784 8.93401C2.25171 8.68198 2.24813 8.58252 2.24813 8.592H0.248125C0.248125 9.00348 0.385535 9.41102 0.551405 9.77099C0.724386 10.1464 0.9692 10.556 1.26956 10.9938C1.87065 11.8698 2.75093 12.9401 3.89186 14.1963L5.37239 12.8517ZM2.24813 8.592C2.24813 8.50579 2.28512 8.29121 2.47346 7.90936C2.6553 7.5407 2.94486 7.08244 3.36114 6.52932L1.76311 5.32668C1.30339 5.93755 0.935948 6.5053 0.679787 7.02464C0.430134 7.53079 0.248125 8.06621 0.248125 8.592H2.24813ZM3.34299 6.55269C3.66608 6.14884 4.026 5.72491 4.42337 5.28079L2.93288 3.9472C2.51425 4.41509 2.13017 4.86716 1.78126 5.30331L3.34299 6.55269ZM4.4319 5.27113C4.81167 4.83551 5.23959 4.40151 5.71704 3.96954L4.37521 2.48646C3.84466 2.96648 3.36058 3.45649 2.92435 3.95686L4.4319 5.27113ZM5.75323 3.93511C6.05616 3.63217 6.36493 3.33506 6.67953 3.04376L5.32072 1.57624C4.98732 1.88494 4.66009 2.19982 4.33902 2.52089L5.75323 3.93511ZM6.68058 3.04279C6.95668 2.78641 7.25515 2.57144 7.57698 2.3959L6.61927 0.640104C6.1491 0.896562 5.71557 1.20959 5.31967 1.57721L6.68058 3.04279ZM7.54534 2.41243C7.5517 2.40924 7.55442 2.40875 7.55524 2.40858C7.55621 2.40839 7.56215 2.4072 7.57575 2.40805L7.7005 0.411946C7.33693 0.389224 6.98062 0.45872 6.65091 0.623573L7.54534 2.41243ZM7.63813 2.41C7.67791 2.41 7.69138 2.41732 7.69999 2.42224L8.69226 0.685756C8.36487 0.498674 8.00634 0.409999 7.63813 0.409999V2.41ZM7.74891 2.44843C7.74966 2.4488 7.75012 2.44906 7.75035 2.44919C7.75057 2.44933 7.75066 2.44939 7.75066 2.44939C7.75066 2.44939 7.75067 2.44939 7.75067 2.4494C7.75068 2.4494 7.7507 2.44942 7.75073 2.44944C7.75079 2.44949 7.751 2.44966 7.75136 2.44998C7.75216 2.45072 7.75858 2.45663 7.76895 2.47276L9.4513 1.39124C9.25253 1.08204 8.98231 0.829056 8.64334 0.659573L7.74891 2.44843ZM7.76895 2.47276C7.76633 2.46869 7.76592 2.46618 7.76686 2.46962C7.76805 2.47397 7.77213 2.49117 7.77213 2.526H9.77213C9.77213 2.13412 9.6771 1.74249 9.4513 1.39124L7.76895 2.47276Z" fill="black"/>
</svg>
