<svg viewBox="0 0 103 109" fill="none" xmlns="http://www.w3.org/2000/svg">
<g filter="url(#filter0_d_193_201)">
<rect x="20" width="63" height="101" rx="10" fill="#D5DBF4"/>
</g>
<path d="M40.5887 45.75C40.4553 44.8833 40.3887 44 40.3887 43.1C40.422 42.2 40.5887 41.3167 40.8887 40.45C41.2553 39.3167 41.8553 38.3167 42.6887 37.45C43.522 36.5833 44.472 35.9 45.5387 35.4C46.672 34.8667 47.822 34.5 48.9887 34.3C50.1887 34.0667 51.3553 34.0167 52.4887 34.15C53.6553 34.2833 54.772 34.5833 55.8387 35.05C56.9387 35.4833 57.972 36.1167 58.9387 36.95C59.972 37.85 60.7387 38.9 61.2387 40.1C61.772 41.2667 62.0553 42.4833 62.0887 43.75C62.1553 45.0167 62.0053 46.2833 61.6387 47.55C61.3053 48.7833 60.7887 49.9333 60.0887 51C60.0887 51 60.072 51.0333 60.0387 51.1C59.472 51.8667 58.822 52.5667 58.0887 53.2C57.3553 53.8 56.672 54.45 56.0387 55.15C55.3053 55.9167 54.872 56.7 54.7387 57.5C54.6053 58.2667 54.472 59.1333 54.3387 60.1C54.2387 61.0333 53.9887 61.85 53.5887 62.55C53.222 63.2167 52.522 63.5333 51.4887 63.5C50.7887 63.4667 50.2553 63.25 49.8887 62.85C49.5553 62.4167 49.3053 61.9167 49.1387 61.35C49.0053 60.75 48.9553 60.1333 48.9887 59.5C49.022 58.8333 49.072 58.25 49.1387 57.75C49.3387 56.5833 49.7053 55.4833 50.2387 54.45C50.772 53.3833 51.422 52.3833 52.1887 51.45C52.622 50.95 53.0553 50.5 53.4887 50.1C53.922 49.6667 54.322 49.2167 54.6887 48.75C55.0553 48.2833 55.372 47.7833 55.6387 47.25C55.9053 46.7167 56.0887 46.1 56.1887 45.4C56.2887 44.7667 56.2387 44.1333 56.0387 43.5C55.8387 42.8333 55.5387 42.25 55.1387 41.75C54.7387 41.2167 54.2553 40.7833 53.6887 40.45C53.122 40.0833 52.5053 39.8833 51.8387 39.85C51.2387 39.8167 50.6053 39.9 49.9387 40.1C49.272 40.2667 48.6553 40.55 48.0887 40.95C47.522 41.3167 47.0553 41.7667 46.6887 42.3C46.3553 42.8333 46.2053 43.4333 46.2387 44.1C46.272 44.5 46.3387 44.9167 46.4387 45.35C46.572 45.75 46.6553 46.15 46.6887 46.55C46.7553 46.9167 46.7387 47.2833 46.6387 47.65C46.572 48.0167 46.3553 48.3667 45.9887 48.7C45.3887 49.2667 44.7887 49.55 44.1887 49.55C43.5887 49.5167 43.0387 49.3167 42.5387 48.95C42.0387 48.5833 41.6053 48.1167 41.2387 47.55C40.9053 46.95 40.6887 46.35 40.5887 45.75ZM54.9887 70.7C54.9887 71.6667 54.622 72.5333 53.8887 73.3C53.1887 74.0333 52.372 74.4 51.4387 74.4C50.5387 74.4 49.7387 74.0333 49.0387 73.3C48.3387 72.5 47.9887 71.6333 47.9887 70.7C47.9887 69.6667 48.3387 68.8 49.0387 68.1C49.7387 67.3333 50.5387 66.95 51.4387 66.95C52.372 66.95 53.1887 67.3333 53.8887 68.1C54.622 68.8333 54.9887 69.7 54.9887 70.7Z" fill="white"/>
<path d="M40.5887 45.75L39.6002 45.9021L39.6023 45.9144L40.5887 45.75ZM40.3887 43.1L39.3894 43.063L39.3887 43.0815V43.1H40.3887ZM40.8887 40.45L41.8337 40.7771L41.837 40.7675L41.8401 40.7578L40.8887 40.45ZM42.6887 37.45L41.9678 36.7569L41.9678 36.7569L42.6887 37.45ZM45.5387 35.4L45.9631 36.3055L45.9645 36.3048L45.5387 35.4ZM48.9887 34.3L49.1576 35.2856L49.1686 35.2837L49.1795 35.2816L48.9887 34.3ZM52.4887 34.15L52.3718 35.1432L52.3751 35.1435L52.4887 34.15ZM55.8387 35.05L55.4379 35.9662L55.4549 35.9736L55.4721 35.9804L55.8387 35.05ZM58.9387 36.95L59.5955 36.1959L59.5916 36.1926L58.9387 36.95ZM61.2387 40.1L60.3156 40.4846L60.3221 40.5003L60.3292 40.5158L61.2387 40.1ZM62.0887 43.75L61.089 43.7763L61.0894 43.7894L61.0901 43.8026L62.0887 43.75ZM61.6387 47.55L60.6781 47.2719L60.6756 47.2805L60.6733 47.2891L61.6387 47.55ZM60.0887 51L59.2526 50.4513L59.2205 50.5004L59.1942 50.5528L60.0887 51ZM60.0387 51.1L60.8428 51.6944L60.8943 51.6247L60.9331 51.5472L60.0387 51.1ZM58.0887 53.2L58.7219 53.974L58.7322 53.9655L58.7423 53.9568L58.0887 53.2ZM56.0387 55.15L56.7613 55.8412L56.7709 55.8312L56.7802 55.8209L56.0387 55.15ZM54.7387 57.5L55.7239 57.6713L55.7251 57.6644L54.7387 57.5ZM54.3387 60.1L53.3481 59.9634L53.346 59.9784L53.3444 59.9935L54.3387 60.1ZM53.5887 62.55L52.7204 62.0539L52.7164 62.0609L52.7125 62.0681L53.5887 62.55ZM51.4887 63.5L51.4411 64.4989L51.4488 64.4992L51.4564 64.4995L51.4887 63.5ZM49.8887 62.85L49.096 63.4597L49.1224 63.4939L49.1515 63.5257L49.8887 62.85ZM49.1387 61.35L48.1625 61.5669L48.1698 61.5998L48.1793 61.6322L49.1387 61.35ZM48.9887 59.5L49.9873 59.5526L49.9874 59.5499L48.9887 59.5ZM49.1387 57.75L48.1531 57.581L48.1499 57.5994L48.1474 57.6178L49.1387 57.75ZM50.2387 54.45L51.1274 54.9087L51.1331 54.8972L50.2387 54.45ZM52.1887 51.45L51.433 50.7951L51.4243 50.8051L51.4159 50.8153L52.1887 51.45ZM53.4887 50.1L54.167 50.8348L54.1816 50.8212L54.1958 50.8071L53.4887 50.1ZM55.6387 47.25L54.7442 46.8028L54.7442 46.8028L55.6387 47.25ZM56.1887 45.4L55.2009 45.244L55.1998 45.2513L55.1987 45.2586L56.1887 45.4ZM56.0387 43.5L55.0808 43.7873L55.0829 43.7943L55.0851 43.8011L56.0387 43.5ZM55.1387 41.75L54.3387 42.35L54.348 42.3625L54.3578 42.3747L55.1387 41.75ZM53.6887 40.45L53.1454 41.2896L53.1633 41.3011L53.1817 41.3119L53.6887 40.45ZM51.8387 39.85L51.7832 40.8485L51.7887 40.8488L51.8387 39.85ZM49.9387 40.1L50.1812 41.0701L50.2038 41.0645L50.226 41.0578L49.9387 40.1ZM48.0887 40.95L48.6319 41.7896L48.6489 41.7786L48.6654 41.767L48.0887 40.95ZM46.6887 42.3L45.8646 41.7335L45.8523 41.7515L45.8407 41.77L46.6887 42.3ZM46.2387 44.1L45.2399 44.1499L45.2407 44.1665L45.2421 44.183L46.2387 44.1ZM46.4387 45.35L45.4643 45.5749L45.475 45.6212L45.49 45.6662L46.4387 45.35ZM46.6887 46.55L45.6921 46.633L45.6961 46.6813L45.7048 46.7289L46.6887 46.55ZM46.6387 47.65L45.6739 47.3869L45.6625 47.4286L45.6548 47.4711L46.6387 47.65ZM45.9887 48.7L45.316 47.9601L45.309 47.9665L45.302 47.973L45.9887 48.7ZM44.1887 49.55L44.1332 50.5485L44.1609 50.55H44.1887V49.55ZM41.2387 47.55L40.3645 48.0356L40.3808 48.065L40.3991 48.0933L41.2387 47.55ZM53.8887 73.3L53.166 72.6088L53.1653 72.6095L53.8887 73.3ZM49.0387 73.3L48.2861 73.9585L48.3004 73.9748L48.3153 73.9905L49.0387 73.3ZM49.0387 68.1L49.7458 68.8071L49.7618 68.791L49.7772 68.7743L49.0387 68.1ZM53.8887 68.1L53.1502 68.7743L53.1655 68.791L53.1816 68.8071L53.8887 68.1ZM41.577 45.5979C41.4517 44.7829 41.3887 43.9504 41.3887 43.1H39.3887C39.3887 44.0496 39.459 44.9838 39.6003 45.9021L41.577 45.5979ZM41.388 43.137C41.4176 42.3377 41.5654 41.552 41.8337 40.7771L39.9437 40.1229C39.6119 41.0813 39.4264 42.0623 39.3894 43.063L41.388 43.137ZM41.8401 40.7578C42.1597 39.7701 42.6802 38.9015 43.4095 38.1431L41.9678 36.7569C41.0304 37.7318 40.351 38.8632 39.9372 40.1422L41.8401 40.7578ZM43.4095 38.1431C44.1597 37.3629 45.0097 36.7524 45.9631 36.3055L45.1142 34.4945C43.9343 35.0476 42.8843 35.8037 41.9678 36.7569L43.4095 38.1431ZM45.9645 36.3048C47.021 35.8076 48.0849 35.4695 49.1576 35.2856L48.8197 33.3144C47.5592 33.5305 46.323 33.9257 45.1129 34.4952L45.9645 36.3048ZM49.1795 35.2816C50.2854 35.0666 51.3481 35.0227 52.3718 35.1431L52.6055 33.1568C51.3626 33.0106 50.0919 33.0667 48.7978 33.3184L49.1795 35.2816ZM52.3751 35.1435C53.4436 35.2656 54.4633 35.5398 55.4379 35.9662L56.2395 34.1338C55.0807 33.6269 53.8671 33.301 52.6022 33.1565L52.3751 35.1435ZM55.4721 35.9804C56.4596 36.3694 57.3974 36.9416 58.2857 37.7074L59.5916 36.1926C58.5466 35.2918 57.4177 34.5972 56.2052 34.1196L55.4721 35.9804ZM58.2819 37.7041C59.2057 38.5087 59.878 39.4343 60.3156 40.4846L62.1618 39.7154C61.5994 38.3657 60.7383 37.1913 59.5955 36.1959L58.2819 37.7041ZM60.3292 40.5158C60.8073 41.5616 61.0593 42.6459 61.089 43.7763L63.0883 43.7237C63.0514 42.3208 62.7367 40.9718 62.1481 39.6842L60.3292 40.5158ZM61.0901 43.8026C61.1506 44.9533 61.015 46.1083 60.6781 47.2719L62.5992 47.8281C62.9957 46.4584 63.1601 45.08 63.0873 43.6974L61.0901 43.8026ZM60.6733 47.2891C60.3675 48.4204 59.8945 49.4733 59.2526 50.4513L60.9247 51.5487C61.6829 50.3934 62.2431 49.1463 62.604 47.8109L60.6733 47.2891ZM60.0887 51C59.1942 50.5528 59.1942 50.5528 59.1942 50.5528C59.1942 50.5528 59.1942 50.5528 59.1942 50.5528C59.1942 50.5528 59.1942 50.5528 59.1942 50.5528C59.1942 50.5528 59.1942 50.5528 59.1942 50.5528C59.1942 50.5528 59.1942 50.5528 59.1942 50.5528C59.1942 50.5528 59.1942 50.5528 59.1942 50.5528C59.1942 50.5528 59.1942 50.5528 59.1942 50.5528C59.1942 50.5528 59.1942 50.5528 59.1942 50.5528C59.1942 50.5528 59.1942 50.5528 59.1942 50.5528C59.1942 50.5528 59.1942 50.5528 59.1942 50.5528C59.1942 50.5528 59.1942 50.5529 59.1942 50.5529C59.1942 50.5529 59.1942 50.5529 59.1941 50.553C59.1941 50.5531 59.1941 50.553 59.1941 50.5532C59.1935 50.5542 59.1944 50.5526 59.1938 50.5537C59.1928 50.5557 59.1945 50.5522 59.1935 50.5543C59.1924 50.5564 59.1937 50.554 59.1925 50.5563C59.1895 50.5623 59.1943 50.5528 59.1911 50.559C59.189 50.5632 59.1898 50.5616 59.1872 50.5668C59.1855 50.5702 59.1865 50.5683 59.1847 50.5719C59.1829 50.5756 59.1851 50.5711 59.1833 50.5748C59.1822 50.5768 59.1828 50.5757 59.1817 50.5778C59.1797 50.5819 59.1806 50.58 59.1784 50.5844C59.1747 50.5918 59.1803 50.5806 59.1766 50.588C59.1766 50.5881 59.1765 50.5882 59.1765 50.5883C59.1765 50.5883 59.1764 50.5884 59.1764 50.5885C59.1763 50.5886 59.1763 50.5887 59.1763 50.5887C59.1762 50.5888 59.1762 50.5889 59.1762 50.589C59.1758 50.5896 59.176 50.5893 59.1757 50.5899C59.1744 50.5925 59.176 50.5892 59.1747 50.5918C59.1539 50.6335 59.1875 50.5663 59.1661 50.609C59.1593 50.6226 59.1633 50.6148 59.156 50.6293C59.1541 50.633 59.1564 50.6285 59.1546 50.6321C59.1546 50.6321 59.1539 50.6335 59.1539 50.6335C59.1538 50.6336 59.1538 50.6337 59.1537 50.6339C59.1537 50.634 59.1536 50.6341 59.1535 50.6342C59.1533 50.6347 59.1534 50.6344 59.1532 50.6349C59.1494 50.6425 59.1541 50.6331 59.1503 50.6407C59.1463 50.6488 59.1484 50.6444 59.1442 50.6528L60.9331 51.5472C60.9831 51.4473 60.929 51.5555 60.9706 51.4722C60.9775 51.4583 60.9751 51.4632 60.98 51.4535C60.9831 51.4472 60.9797 51.454 60.9823 51.4488C60.9828 51.4479 60.9826 51.4482 60.9829 51.4476C60.983 51.4475 60.9829 51.4476 60.9829 51.4475C60.983 51.4475 60.983 51.4475 60.983 51.4475C60.983 51.4475 60.983 51.4475 60.983 51.4475C60.983 51.4475 60.983 51.4475 60.983 51.4475C60.983 51.4475 60.983 51.4474 60.983 51.4474C60.983 51.4474 60.983 51.4474 60.983 51.4474C60.983 51.4474 60.983 51.4474 60.983 51.4474C60.983 51.4474 60.983 51.4474 60.983 51.4474C60.983 51.4474 60.983 51.4474 60.983 51.4474C60.983 51.4473 60.983 51.4474 60.983 51.4473C60.9831 51.4472 60.983 51.4473 60.9831 51.4472C60.9831 51.4472 60.9831 51.4473 60.9831 51.4472C60.9831 51.4472 60.9831 51.4472 60.9831 51.4472C60.9831 51.4472 60.9831 51.4472 60.9831 51.4472C60.9831 51.4472 60.9831 51.4472 60.0887 51ZM59.2345 50.5056C58.7126 51.2118 58.1133 51.8574 57.4351 52.4432L58.7423 53.9568C59.5307 53.2759 60.2314 52.5216 60.8428 51.6944L59.2345 50.5056ZM57.4554 52.426C56.6836 53.0575 55.9641 53.7419 55.2971 54.4791L56.7802 55.8209C57.3799 55.1581 58.0271 54.5425 58.7219 53.974L57.4554 52.426ZM55.316 54.4588C54.4862 55.3264 53.9274 56.2847 53.7523 57.3356L55.7251 57.6644C55.8166 57.1153 56.1245 56.507 56.7613 55.8412L55.316 54.4588ZM53.7535 57.3287C53.6177 58.1093 53.4826 58.9879 53.3481 59.9634L55.3293 60.2366C55.4614 59.2788 55.593 58.424 55.7239 57.6713L53.7535 57.3287ZM53.3444 59.9935C53.2567 60.8119 53.0417 61.4917 52.7204 62.0539L54.4569 63.0461C54.9357 62.2083 55.2207 61.2547 55.333 60.2065L53.3444 59.9935ZM52.7125 62.0681C52.5918 62.2874 52.3344 62.5268 51.5209 62.5005L51.4564 64.4995C52.7096 64.5399 53.8522 64.1459 54.4649 63.0319L52.7125 62.0681ZM51.5362 62.5011C51.0196 62.4765 50.7665 62.3278 50.6258 62.1743L49.1515 63.5257C49.7442 64.1722 50.5578 64.4568 51.4411 64.4989L51.5362 62.5011ZM50.6813 62.2403C50.4292 61.9125 50.2327 61.5255 50.098 61.0678L48.1793 61.6322C48.378 62.3078 48.6815 62.9208 49.096 63.4597L50.6813 62.2403ZM50.1149 61.1331C50.0018 60.6243 49.9586 60.0984 49.9873 59.5526L47.9901 59.4474C47.9521 60.1683 48.0089 60.8757 48.1625 61.5669L50.1149 61.1331ZM49.9874 59.5499C50.0198 58.9026 50.0678 58.3478 50.1299 57.8822L48.1474 57.6178C48.0762 58.1522 48.0242 58.7641 47.9899 59.4501L49.9874 59.5499ZM50.1243 57.919C50.3073 56.8514 50.6418 55.8493 51.1273 54.9086L49.3501 53.9914C48.7689 55.1173 48.37 56.3152 48.1531 57.581L50.1243 57.919ZM51.1331 54.8972C51.6326 53.8983 52.2416 52.9611 52.9614 52.0847L51.4159 50.8153C50.6024 51.8056 49.9114 52.8684 49.3442 54.0028L51.1331 54.8972ZM52.9444 52.1049C53.3563 51.6296 53.7639 51.2068 54.167 50.8348L52.8104 49.3652C52.3467 49.7932 51.8877 50.2704 51.433 50.7951L52.9444 52.1049ZM54.1958 50.8071C54.6564 50.3465 55.0829 49.8668 55.475 49.3678L53.9024 48.1322C53.5611 48.5665 53.1877 48.9868 52.7816 49.3929L54.1958 50.8071ZM55.475 49.3678C55.8836 48.8478 56.2364 48.2906 56.5331 47.6972L54.7442 46.8028C54.5076 47.276 54.2271 47.7188 53.9024 48.1322L55.475 49.3678ZM56.5331 47.6972C56.8558 47.0518 57.0662 46.3286 57.1786 45.5414L55.1987 45.2586C55.1112 45.8714 54.9549 46.3815 54.7442 46.8028L56.5331 47.6972ZM57.1764 45.556C57.3015 44.7641 57.2372 43.9744 56.9923 43.1989L55.0851 43.8011C55.2402 44.2923 55.2759 44.7692 55.2009 45.244L57.1764 45.556ZM56.9965 43.2126C56.7629 42.434 56.4063 41.7338 55.9195 41.1253L54.3578 42.3747C54.671 42.7662 54.9144 43.2327 55.0808 43.7873L56.9965 43.2126ZM55.9387 41.15C55.4604 40.5124 54.878 39.9894 54.1957 39.5881L53.1817 41.3119C53.6327 41.5772 54.0169 41.921 54.3387 42.35L55.9387 41.15ZM54.2319 39.6104C53.5194 39.1494 52.7329 38.8935 51.8886 38.8512L51.7887 40.8488C52.2778 40.8732 52.7246 41.0173 53.1454 41.2896L54.2319 39.6104ZM51.8941 38.8515C51.1617 38.8108 50.4118 38.914 49.6513 39.1422L50.226 41.0578C50.7989 40.886 51.3157 40.8225 51.7832 40.8485L51.8941 38.8515ZM49.6961 39.1299C48.9084 39.3268 48.1786 39.6624 47.512 40.133L48.6654 41.767C49.132 41.4376 49.6356 41.2065 50.1812 41.0701L49.6961 39.1299ZM47.5454 40.1104C46.8729 40.5456 46.3092 41.0869 45.8646 41.7335L47.5127 42.8665C47.8015 42.4465 48.1711 42.0877 48.6319 41.7896L47.5454 40.1104ZM45.8407 41.77C45.3922 42.4876 45.197 43.2923 45.2399 44.1499L47.2374 44.0501C47.2136 43.5743 47.3185 43.1791 47.5367 42.83L45.8407 41.77ZM45.2421 44.183C45.2798 44.6356 45.3546 45.0998 45.4643 45.5749L47.4131 45.1251C47.3227 44.7336 47.2642 44.3644 47.2352 44.017L45.2421 44.183ZM45.49 45.6662C45.5994 45.9945 45.6657 46.3163 45.6921 46.633L47.6852 46.467C47.6449 45.9837 47.5446 45.5055 47.3874 45.0338L45.49 45.6662ZM45.7048 46.7289C45.7442 46.9457 45.7354 47.1613 45.6739 47.3869L47.6034 47.9131C47.7419 47.4053 47.7665 46.8877 47.6725 46.3711L45.7048 46.7289ZM45.6548 47.4711C45.6386 47.56 45.5735 47.726 45.316 47.9601L46.6613 49.4399C47.1372 49.0074 47.5054 48.4733 47.6225 47.8289L45.6548 47.4711ZM45.302 47.973C44.8171 48.431 44.4505 48.55 44.1887 48.55V50.55C45.1269 50.55 45.9603 50.1023 46.6753 49.427L45.302 47.973ZM44.2441 48.5515C43.844 48.5293 43.479 48.3995 43.13 48.1436L41.9473 49.7564C42.5983 50.2338 43.3333 50.504 44.1332 50.5485L44.2441 48.5515ZM43.13 48.1436C42.7364 47.8549 42.3847 47.4804 42.0782 47.0067L40.3991 48.0933C40.826 48.7529 41.3409 49.3117 41.9473 49.7564L43.13 48.1436ZM42.1128 47.0644C41.8279 46.5515 41.654 46.0594 41.5751 45.5856L39.6023 45.9144C39.7233 46.6406 39.9827 47.3484 40.3645 48.0356L42.1128 47.0644ZM53.9887 70.7C53.9887 71.383 53.7403 72.0084 53.166 72.6088L54.6113 73.9912C55.5037 73.0583 55.9887 71.9504 55.9887 70.7H53.9887ZM53.1653 72.6095C52.6359 73.1641 52.0736 73.4 51.4387 73.4V75.4C52.6704 75.4 53.7414 74.9026 54.612 73.9905L53.1653 72.6095ZM51.4387 73.4C50.8477 73.4 50.2996 73.1727 49.762 72.6095L48.3153 73.9905C49.1778 74.894 50.2296 75.4 51.4387 75.4V73.4ZM49.7912 72.6415C49.2271 71.9968 48.9887 71.3575 48.9887 70.7H46.9887C46.9887 71.9092 47.4502 73.0032 48.2861 73.9585L49.7912 72.6415ZM48.9887 70.7C48.9887 69.9189 49.2423 69.3106 49.7458 68.8071L48.3316 67.3929C47.4351 68.2894 46.9887 69.4144 46.9887 70.7H48.9887ZM49.7772 68.7743C50.3197 68.1801 50.8638 67.95 51.4387 67.95V65.95C50.2135 65.95 49.1577 66.4866 48.3002 67.4257L49.7772 68.7743ZM51.4387 67.95C52.0578 67.95 52.616 68.1892 53.1502 68.7743L54.6272 67.4257C53.7613 66.4775 52.6863 65.95 51.4387 65.95V67.95ZM53.1816 68.8071C53.7351 69.3607 53.9887 69.976 53.9887 70.7H55.9887C55.9887 69.424 55.5089 68.306 54.5958 67.3929L53.1816 68.8071Z" fill="black"/>
<defs>
<filter id="filter0_d_193_201" x="16" y="0" width="71" height="109" filterUnits="userSpaceOnUse" color-interpolation-filters="sRGB">
<feFlood flood-opacity="0" result="BackgroundImageFix"/>
<feColorMatrix in="SourceAlpha" type="matrix" values="0 0 0 0 0 0 0 0 0 0 0 0 0 0 0 0 0 0 127 0" result="hardAlpha"/>
<feOffset dy="4"/>
<feGaussianBlur stdDeviation="2"/>
<feComposite in2="hardAlpha" operator="out"/>
<feColorMatrix type="matrix" values="0 0 0 0 0 0 0 0 0 0 0 0 0 0 0 0 0 0 0.25 0"/>
<feBlend mode="normal" in2="BackgroundImageFix" result="effect1_dropShadow_193_201"/>
<feBlend mode="normal" in="SourceGraphic" in2="effect1_dropShadow_193_201" result="shape"/>
</filter>
</defs>
</svg>
